<svg id="Layer_1" data-name="Layer 1" xmlns="http://www.w3.org/2000/svg" viewBox="0 0 1080 1080"><defs><style>.cls-1{fill:#fefefe;}.cls-2,.cls-3{fill-rule:evenodd;}.cls-3,.cls-5,.cls-6{fill:#fff;}.cls-4,.cls-6,.cls-7{stroke:#000;stroke-miterlimit:10;}.cls-6{stroke-width:2px;}.cls-7{fill:none;}.cls-8{fill:#00bfff;}</style></defs><circle id="circle13" class="cls-1" cx="537.8" cy="540" r="529.5"/><path id="path15" class="cls-2" d="M960,0c298.2,0,540,241.8,540,540s-241.8,540-540,540S420,838.2,420,540,661.8,0,960,0Zm-5.5,27.9c-2.5,0-5.1.1-7.6.1C667.7,32,442.3,259.9,442.3,540c0,280.5,225.8,508.5,505.5,512-138.3-3.5-249.4-116.8-249.4-256,0-141.3,114.7-256.1,256.1-256.1s256.1-114.7,256.1-256.1S1095.9,27.9,954.5,27.9Z" transform="translate(-420)"/><path id="path17" class="cls-2" d="M873.7,334.4V143.5a31.08,31.08,0,0,1,30.8-30.7H1004a29.05,29.05,0,0,1,21.4,9.1,29.78,29.78,0,0,1,9,21.6V334.4a30.73,30.73,0,0,1-30.8,30.7H904.5a29.81,29.81,0,0,1-21.9-9,30.39,30.39,0,0,1-8.9-21.7Zm129.2-1.2V145H905.7V333.2Z" transform="translate(-420)"/><path id="path19" class="cls-3" d="M910.1,911.4h49V723.3H910.9a15.79,15.79,0,0,1-11.3-4.6,15.23,15.23,0,0,1-4.6-11.3,15.79,15.79,0,0,1,4.6-11.3,15.39,15.39,0,0,1,11.3-4.6H991V911.6h31.9V845.2a15.9,15.9,0,0,1,4.6-11.2,15.1,15.1,0,0,1,11.3-4.7,15.79,15.79,0,0,1,11.3,4.6,15.39,15.39,0,0,1,4.6,11.3v82.4a16.2,16.2,0,0,1-4.6,11.4,15.23,15.23,0,0,1-11.3,4.6H910.1a15.2,15.2,0,0,1-11.3-4.8,16,16,0,0,1-4.6-11.5,16,16,0,0,1,15.9-15.9Z" transform="translate(-420)"/><path d="M1188.7,250.3" transform="translate(-420)"/><path class="cls-4" d="M1189.5,193.8c-4.1-.2-7.7-.2-10.4-.2-5.2.1-7.3.3-8.7,1.9-1,1.1-1.1,2.4-1.4,4-1.2,9-1.8,13.5-3.7,14.7-1.4.9-2.1-.1-9.1-1.2-6.7-1-7.7-.4-8.8-1.6-1.5-1.7-.7-4.3,2.3-14.7.3-1,2.6-9.2,2.7-9.4-52.6-25.8-72.5-54.8-79.6-67-4.6-7.9-12.3-23.5-19.1-39-7.4-17-12.6-31.6-16-42.1a200.18,200.18,0,0,1,52.8,10.5,212.86,212.86,0,0,1,32.2,14.4c39.9,22.5,64.1,61.8,72.9,77.7a87,87,0,0,0,11.6-3c7.2-2.4,10-4.5,12.4-3.1,1.3.8,1.8,3.9,2.8,10.1,1.3,7.9.8,8.8.5,9.3-1.3,1.8-4.9,2.4-12.1,3.6-4.9.8-6.8.7-7.9,2.4-.4.6-2.3,1.7-1.3,6.8,1.3,6.7,4,8.4,2.6,10.1-2.1,2.4-2.3,2.6-6.8,7.8C1195.5,187.9,1192.6,190.4,1189.5,193.8Z" transform="translate(-420)"/><path d="M1037.7,39.2a373.31,373.31,0,0,1,111.2,81.6,367.93,367.93,0,0,1,48.5,65" transform="translate(-420)"/><path class="cls-5" d="M1205.2,176.9c-2.6,3-5.2,5.9-7.8,8.9A370.52,370.52,0,0,0,1037.7,39.3a196.14,196.14,0,0,1,44.5,7.8c36.6,11,59.5,30,64.3,34.1a163.61,163.61,0,0,1,27.4,29.7c6.1,9.2,14.5,16.9,19.4,26.8.5,1.1,1.4,3.2,3.4,4,3.1,1.3,6.2-1.1,16-4.7,4.7-1.7,5.9-1.8,7-1.2s1.7,2,2.8,10.1c1.1,7.9,1,8.6.5,9.3-1.5,2.1-3.9,1.4-12.1,3.6-4.7,1.2-7.1,1.9-8.2,3.3C1199.6,166.1,1203.6,173.9,1205.2,176.9Z" transform="translate(-420)"/><circle class="cls-6" cx="678.5" cy="85.7" r="17.1"/><path class="cls-5" d="M1070.3,74.1" transform="translate(-420)"/><path class="cls-7" d="M947.9,1052.1" transform="translate(-420)"/><path class="cls-8" d="M947.9,1052.1c-13,.6-152,4.5-231.1-102.7-77.2-104.6-44.6-241.4,7.6-318.3,43.5-64.1,105-93.1,115.2-97.8,94.6-43.3,150.5-.6,234.2-52.3,49.9-30.8,74.9-73.8,85.3-92.1,47.2-83.4,35.6-167.1,30.5-195.1,5.3-5.6,10.5-11.3,15.8-16.9,11.3,25.5,27.1,70.5,24.3,126.8-.3,6.4-6.5,104.3-76.2,178.5C1041.4,601.7,901.6,514.3,792,625.4c-55.6,56.3-86.4,146.4-67.1,229.6C747.1,951.4,834.3,1028.2,947.9,1052.1Z" transform="translate(-420)"/><path class="cls-7" d="M1189.5,193.8" transform="translate(-420)"/></svg>