<svg id="visual" viewBox="0 0 960 300" width="960" height="300" xmlns="http://www.w3.org/2000/svg" xmlns:xlink="http://www.w3.org/1999/xlink" version="1.1"><path d="M0 195L20 181C40 167 80 139 120 139.5C160 140 200 169 240 164.7C280 160.3 320 122.7 360 115C400 107.3 440 129.7 480 152.2C520 174.7 560 197.3 600 207.2C640 217 680 214 720 208.8C760 203.7 800 196.3 840 185.7C880 175 920 161 940 154L960 147L960 0L940 0C920 0 880 0 840 0C800 0 760 0 720 0C680 0 640 0 600 0C560 0 520 0 480 0C440 0 400 0 360 0C320 0 280 0 240 0C200 0 160 0 120 0C80 0 40 0 20 0L0 0Z" fill="#0066FF" stroke-linecap="round" stroke-linejoin="miter"></path></svg>