<svg id="visual" viewBox="0 0 900 50" width="900" height="50" xmlns="http://www.w3.org/2000/svg" xmlns:xlink="http://www.w3.org/1999/xlink" version="1.1"><path d="M0 22L8.3 23.3C16.7 24.7 33.3 27.3 50 27C66.7 26.7 83.3 23.3 100 23.2C116.7 23 133.3 26 150 27.2C166.7 28.3 183.3 27.7 200 25.8C216.7 24 233.3 21 250 20.8C266.7 20.7 283.3 23.3 300 23.5C316.7 23.7 333.3 21.3 350 21.5C366.7 21.7 383.3 24.3 400 24.8C416.7 25.3 433.3 23.7 450 24.2C466.7 24.7 483.3 27.3 500 26.8C516.7 26.3 533.3 22.7 550 20.5C566.7 18.3 583.3 17.7 600 18.5C616.7 19.3 633.3 21.7 650 24C666.7 26.3 683.3 28.7 700 29.3C716.7 30 733.3 29 750 28.7C766.7 28.3 783.3 28.7 800 28.5C816.7 28.3 833.3 27.7 850 25.8C866.7 24 883.3 21 891.7 19.5L900 18L900 51L891.7 51C883.3 51 866.7 51 850 51C833.3 51 816.7 51 800 51C783.3 51 766.7 51 750 51C733.3 51 716.7 51 700 51C683.3 51 666.7 51 650 51C633.3 51 616.7 51 600 51C583.3 51 566.7 51 550 51C533.3 51 516.7 51 500 51C483.3 51 466.7 51 450 51C433.3 51 416.7 51 400 51C383.3 51 366.7 51 350 51C333.3 51 316.7 51 300 51C283.3 51 266.7 51 250 51C233.3 51 216.7 51 200 51C183.3 51 166.7 51 150 51C133.3 51 116.7 51 100 51C83.3 51 66.7 51 50 51C33.3 51 16.7 51 8.3 51L0 51Z" fill="#0066FF" stroke-linecap="round" stroke-linejoin="miter"></path></svg>